<svg width="40" height="40" viewBox="0 0 40 40" fill="none" xmlns="http://www.w3.org/2000/svg">
<path fill-rule="evenodd" clip-rule="evenodd" d="M5.625 23.5509C5.625 23.6608 5.77844 23.75 5.96891 23.75H7.15609C7.34609 23.75 7.5 23.6617 7.5 23.5509V17.6991C7.5 17.5892 7.34656 17.5 7.15609 17.5H5.96891C5.77891 17.5 5.625 17.5883 5.625 17.6991M8.75 26.3355C8.75 26.5472 8.90344 26.7188 9.09391 26.7188H10.2811C10.4711 26.7188 10.625 26.5487 10.625 26.3355V15.0708C10.625 14.8591 10.4716 14.6875 10.2811 14.6875H9.09391C8.90391 14.6875 8.75 14.8575 8.75 15.0708M11.7188 23.8634C11.7188 23.9733 11.8722 24.0625 12.0627 24.0625H13.2498C13.4398 24.0625 13.5938 23.9742 13.5938 23.8634V18.0116C13.5938 17.9017 13.4403 17.8125 13.2498 17.8125H12.0627C11.8727 17.8125 11.7188 17.9008 11.7188 18.0116M14.6875 22.8194C14.6875 22.9019 14.8409 22.9688 15.0314 22.9688H16.2186C16.4086 22.9688 16.5625 22.9025 16.5625 22.8194V18.4306C16.5625 18.3481 16.4091 18.2812 16.2186 18.2812H15.0314C14.8414 18.2812 14.6875 18.3475 14.6875 18.4306M17.8125 26.9156C17.8125 27.152 17.9659 27.3438 18.1564 27.3438H19.3436C19.5336 27.3438 19.6875 27.1537 19.6875 26.9156V14.3344C19.6875 14.098 19.5341 13.9062 19.3436 13.9062H18.1564C17.9664 13.9062 17.8125 14.0962 17.8125 14.3344M20.7812 31.0219C20.7812 31.4067 20.9347 31.7188 21.1252 31.7188H22.3123C22.5023 31.7188 22.6562 31.4094 22.6562 31.0219V10.5406C22.6562 10.1558 22.5028 9.84375 22.3123 9.84375H21.1252C20.9352 9.84375 20.7812 10.1531 20.7812 10.5406M23.75 28.6712C23.75 28.9736 23.9034 29.2188 24.0939 29.2188H25.2811C25.4711 29.2188 25.625 28.9758 25.625 28.6712V12.5787C25.625 12.2764 25.4716 12.0312 25.2811 12.0312H24.0939C23.9039 12.0312 23.75 12.2742 23.75 12.5787M26.7188 26.633C26.7188 26.853 26.8722 27.0312 27.0627 27.0312H28.2498C28.4398 27.0312 28.5938 26.8547 28.5938 26.633V14.9297C28.5938 14.7097 28.4403 14.5314 28.2498 14.5314H27.0627C26.8727 14.5314 26.7188 14.708 26.7188 14.9297M29.6875 24.7262C29.6875 24.8773 29.8409 25 30.0314 25H31.2186C31.4086 25 31.5625 24.8786 31.5625 24.7262V16.68C31.5625 16.5289 31.4091 16.4062 31.2186 16.4062H30.0314C29.8414 16.4062 29.6875 16.5277 29.6875 16.68M32.6562 28.0959C32.6562 28.3709 32.8097 28.5938 33.0002 28.5938H34.1873C34.3773 28.5938 34.5312 28.3728 34.5312 28.0959V13.4666C34.5312 13.1916 34.3778 12.9688 34.1873 12.9688H33.0002C32.8102 12.9688 32.6562 13.1897 32.6562 13.4666" fill="#2850FF"/>
</svg>
