<svg width="24" height="24" viewBox="0 0 24 24" fill="none" xmlns="http://www.w3.org/2000/svg">
<path d="M11 2.5H13C14.8996 2.5 16.2742 2.50149 17.3223 2.64258C18.3556 2.78173 18.997 3.04824 19.4746 3.52539C19.9521 4.00248 20.2194 4.64394 20.3584 5.67773C20.4994 6.72589 20.5 8.10045 20.5 10V14C20.5 15.8996 20.4985 17.2742 20.3574 18.3223C20.2183 19.3556 19.9518 19.997 19.4746 20.4746C18.9975 20.9521 18.3561 21.2194 17.3223 21.3584C16.2741 21.4994 14.8996 21.5 13 21.5H11C9.10044 21.5 7.72577 21.4985 6.67773 21.3574C5.64441 21.2183 5.00303 20.9518 4.52539 20.4746C4.0479 19.9975 3.78064 19.3561 3.6416 18.3223C3.50065 17.2741 3.5 15.8996 3.5 14V10C3.5 8.10045 3.50065 6.72589 3.6416 5.67773C3.78064 4.64394 4.0479 4.00248 4.52539 3.52539C5.00248 3.0479 5.64394 2.78064 6.67773 2.6416C7.72589 2.50065 9.10045 2.5 11 2.5ZM8 12.75C7.66848 12.75 7.35063 12.8818 7.11621 13.1162C6.88179 13.3506 6.75 13.6685 6.75 14C6.75 14.3315 6.88179 14.6494 7.11621 14.8838C7.35063 15.1182 7.66848 15.25 8 15.25H13C13.3315 15.25 13.6494 15.1182 13.8838 14.8838C14.1182 14.6494 14.25 14.3315 14.25 14C14.25 13.6685 14.1182 13.3506 13.8838 13.1162C13.6494 12.8818 13.3315 12.75 13 12.75H8ZM8 8.75C7.66848 8.75 7.35063 8.88179 7.11621 9.11621C6.88179 9.35063 6.75 9.66848 6.75 10C6.75 10.3315 6.88179 10.6494 7.11621 10.8838C7.35063 11.1182 7.66848 11.25 8 11.25H16C16.3315 11.25 16.6494 11.1182 16.8838 10.8838C17.1182 10.6494 17.25 10.3315 17.25 10C17.25 9.66848 17.1182 9.35063 16.8838 9.11621C16.6494 8.88179 16.3315 8.75 16 8.75H8Z" fill="#009688" stroke="#009688"/>
</svg>
