<svg width="24" height="24" viewBox="0 0 24 24" fill="none" xmlns="http://www.w3.org/2000/svg">
<path d="M19.09 14.441V18.881C19.0898 19.5093 18.8401 20.1117 18.3959 20.5559C17.9516 21.0001 17.3492 21.2498 16.721 21.25H5.12002C4.80777 21.2499 4.49863 21.1881 4.21035 21.0681C3.92208 20.9481 3.66035 20.7724 3.44021 20.5509C3.22007 20.3295 3.04586 20.0667 2.92758 19.7778C2.80931 19.4888 2.74931 19.1793 2.75102 18.867V7.27904C2.74916 6.96729 2.80919 6.65827 2.92764 6.36988C3.04608 6.0815 3.22059 5.8195 3.44103 5.59905C3.66148 5.37861 3.92348 5.2041 4.21186 5.08566C4.50025 4.96721 4.80927 4.90718 5.12102 4.90904H9.56002" stroke="#767676" stroke-linecap="round" stroke-linejoin="round"/>
<path d="M19.09 8.99503L15.005 4.90903M6.83496 15.803V13.638C6.83696 13.281 6.97896 12.938 7.22996 12.685L16.762 3.15303C16.8884 3.02513 17.039 2.9236 17.205 2.8543C17.371 2.78501 17.5491 2.74933 17.729 2.74933C17.9088 2.74933 18.0869 2.78501 18.2529 2.8543C18.4189 2.9236 18.5695 3.02513 18.696 3.15303L20.847 5.30403C20.9749 5.43051 21.0764 5.5811 21.1457 5.74709C21.215 5.91307 21.2507 6.09116 21.2507 6.27103C21.2507 6.4509 21.215 6.62898 21.1457 6.79497C21.0764 6.96096 20.9749 7.11155 20.847 7.23803L11.315 16.77C11.0615 17.0217 10.7192 17.1636 10.362 17.165H8.19696C8.01803 17.1653 7.8408 17.1302 7.67544 17.0619C7.51007 16.9935 7.35982 16.8932 7.2333 16.7667C7.10677 16.6402 7.00646 16.4899 6.9381 16.3246C6.86975 16.1592 6.8347 15.982 6.83496 15.803Z" stroke="#767676" stroke-linecap="round" stroke-linejoin="round"/>
</svg>
